<?xml version="1.0" encoding="UTF-8"?>
<svg width="42px" height="46px" viewBox="0 0 42 46" version="1.1" xmlns="http://www.w3.org/2000/svg" xmlns:xlink="http://www.w3.org/1999/xlink">
    <!-- Generator: Sketch 51.3 (57544) - http://www.bohemiancoding.com/sketch -->
    <title>Untitled</title>
    <desc>Created with Sketch.</desc>
    <defs></defs>
    <g id="Page-1" stroke="none" stroke-width="1" fill="none" fill-rule="evenodd">
        <text id="P" font-family="BrushScriptMT, Brush Script MT" font-size="42" font-weight="normal" fill="#000000">
            <tspan x="-1" y="27">P</tspan>
        </text>
        <path d="M38.6269531,37.6308594 L38.6269531,39.0458984 C37.3281185,40.2627014 36.2241256,41.2436486 35.3149414,41.9887695 C34.4057572,42.7338904 33.5000045,43.4038056 32.5976562,43.9985352 C31.695308,44.5932647 30.9467803,45.0170886 30.3520508,45.2700195 C29.7573212,45.5229505 29.248049,45.6494141 28.8242187,45.6494141 C27.8124949,45.6494141 26.9853548,45.2734413 26.3427734,44.5214844 C25.7001921,43.7695275 25.3789062,42.7988341 25.3789062,41.609375 C25.3789062,40.2421807 25.655759,38.8886786 26.2094727,37.5488281 C26.7631864,36.2089777 27.5527292,34.8247142 28.578125,33.3959961 C29.6035208,31.967278 30.8886642,30.3642667 32.4335938,28.5869141 C33.582037,27.2744075 34.15625,26.5361336 34.15625,26.3720703 C34.15625,26.2763667 34.1220707,26.1943363 34.0537109,26.1259766 C33.9853512,26.0576168 33.9101567,26.0234375 33.828125,26.0234375 C33.5683581,26.0234375 32.7685614,26.5976505 31.4287109,27.7460938 C30.0888605,28.894537 28.3696394,30.5829967 26.2709961,32.8115234 C24.1723528,35.0400502 21.9062622,37.6923674 19.4726562,40.7685547 C19.3359368,40.932618 18.9018591,41.4897413 18.1704102,42.4399414 C17.4389612,43.3901415 16.9228531,44.0087876 16.6220703,44.2958984 C16.3212876,44.5830092 16.0615245,44.7265625 15.8427734,44.7265625 C15.459959,44.7265625 15.1284194,44.3403359 14.8481445,43.5678711 C14.5678697,42.7954063 14.4277344,41.9716841 14.4277344,41.0966797 C14.4277344,40.5634739 14.602049,39.9892609 14.9506836,39.3740234 C15.2993181,38.758786 16.0580996,37.6547931 17.2270508,36.0620117 C18.3960019,34.4692303 19.3632774,33.125982 20.1289062,32.0322266 C20.8945351,30.9384711 21.735347,29.6123125 22.6513672,28.0537109 C23.2939485,26.9736274 23.7690414,26.1123079 24.0766602,25.4697266 C24.3842789,24.8271452 24.5380859,24.2597681 24.5380859,23.7675781 C24.5380859,23.3437479 24.4150403,23.1318359 24.1689453,23.1318359 C23.6494115,23.1318359 22.6718822,23.8256767 21.2363281,25.2133789 C19.8007741,26.6010812 18.026866,28.6620957 15.9145508,31.3964844 C13.8022355,34.130873 11.5976677,37.2958805 9.30078125,40.8916016 C8.54882437,42.1220765 8.01562657,42.9492166 7.70117187,43.3730469 C7.38671718,43.7968771 7.03808785,44.0087891 6.65527344,44.0087891 C6.17675542,44.0087891 5.72900599,43.4995168 5.31201172,42.480957 C4.89501745,41.4623973 4.68652344,40.638675 4.68652344,40.0097656 C4.68652344,39.8046865 4.76855387,39.5791028 4.93261719,39.3330078 C6.73731371,36.9267458 8.22069731,34.8828209 9.3828125,33.2011719 C10.5449277,31.5195228 11.5771439,29.9233474 12.4794922,28.4125977 C13.3818404,26.9018479 14.0380839,25.6577197 14.4482422,24.6801758 C14.8584005,23.7026318 15.0634766,22.9335966 15.0634766,22.3730469 C15.0634766,21.7851533 14.7968777,21.4912109 14.2636719,21.4912109 C13.8261697,21.4912109 13.5322318,19.2285128 12.4794922,19.7890625 C11.4267525,20.3496122 8.26172678,21.9560498 6.65527344,22.9267578 C5.04882009,23.8974658 3.95069036,24.372556 2.97998238,24.8852539 C2.0092744,25.3979518 3.84768413,23.3266602 3.36916611,23.3266602 C2.91799198,23.3266602 2,25.155276 2,24.6494141 C2,24.3623033 2.78857517,23.7334036 2.97998238,22.7011719 C3.17138959,21.6689402 1.99999897,23.1250021 2.20507812,22.7011719 C2.49218894,22.1542941 3.22704487,21.429692 4.40966797,20.5273438 C5.59229107,19.6249955 6.24511657,19.1738281 6.36816406,19.1738281 C6.47753961,19.1738281 6.53222656,19.2216792 6.53222656,19.3173828 C6.53222656,19.3720706 6.47753961,19.454101 6.36816406,19.5634766 C5.80761438,20.0146507 5.39062637,20.3837876 5.1171875,20.6708984 C4.84374863,20.9580092 4.6728519,21.2724592 4.60449219,21.6142578 C7.10645782,20.110344 9.34520497,18.965336 11.3208008,18.1791992 C13.2963966,17.3930625 14.6669884,17 15.4326172,17 C15.8154316,17 16.1777327,17.2563451 16.5195312,17.769043 C16.8613298,18.2817408 17.1518543,18.8764615 17.3911133,19.5532227 C17.6303723,20.2299839 17.75,20.6640615 17.75,20.8554688 C17.75,21.5527379 17.5722674,22.3764601 17.2167969,23.3266602 C16.8613263,24.2768602 16.3793976,25.3808531 15.7709961,26.6386719 C15.1625946,27.8964907 14.4072311,29.4687406 13.5048828,31.3554688 C14.2158239,30.4394485 14.8925749,29.5918008 15.5351562,28.8125 C16.1777376,28.0331992 16.8168914,27.2744178 17.4526367,26.5361328 C18.0883821,25.7978479 18.7343717,25.0527381 19.390625,24.3007812 C20.2793013,23.2753855 21.2773382,22.2944383 22.3847656,21.3579102 C23.492193,20.421382 24.5278272,19.6557647 25.4916992,19.0610352 C26.4555712,18.4663056 27.1083967,18.1689453 27.4501953,18.1689453 C27.9287133,18.1689453 28.3559552,18.4321263 28.7319336,18.9584961 C29.107912,19.4848659 29.2958984,20.0488251 29.2958984,20.6503906 C29.2958984,21.046877 29.0361354,21.8056585 28.5166016,22.9267578 C27.9970677,24.0478572 27.2382862,25.4833897 26.2402344,27.2333984 C25.2421825,28.9834072 23.9228598,31.239244 22.2822266,34.0009766 C23.8408281,32.3466714 25.4609291,30.64454 27.1425781,28.8945312 C28.8242272,27.1445225 30.0751912,25.866215 30.8955078,25.0595703 C31.7158244,24.2529257 32.3994113,23.6376974 32.9462891,23.2138672 C33.6982459,22.6396456 34.4536095,22.0209994 35.2124023,21.3579102 C35.9711952,20.6948209 36.5693337,20.1718769 37.0068359,19.7890625 C37.4443381,19.4062481 37.8339827,19.1123057 38.1757812,18.9072266 C38.5175798,18.7021474 38.8320298,18.5996094 39.1191406,18.5996094 C39.4746112,18.5996094 39.9223606,19.0097615 40.4624023,19.8300781 C41.0024441,20.6503947 41.2724609,21.1767567 41.2724609,21.4091797 C41.2724609,21.6962905 41.111818,22.038084 40.7905273,22.4345703 C40.4692367,22.8310567 39.8027394,23.5693305 38.7910156,24.6494141 C36.9316313,26.6455178 35.3183662,28.6586813 33.9511719,30.6889648 C32.5839775,32.7192484 31.5483434,34.571769 30.8442383,36.246582 C30.1401332,37.9213951 29.7880859,39.2441358 29.7880859,40.2148438 C29.7880859,40.8164093 29.9008778,41.2539049 30.1264648,41.5273438 C30.3520519,41.8007826 30.7040992,41.9375 31.1826172,41.9375 C31.6201194,41.9375 32.0268536,41.8554696 32.402832,41.6914062 C32.7788105,41.5273429 33.1957985,41.2949234 33.6538086,40.9941406 C34.1118187,40.6933579 34.5458964,40.4062514 34.9560547,40.1328125 C35.5302763,39.7910139 36.0942355,39.4252949 36.6479492,39.0356445 C37.2016629,38.6459941 37.6323227,38.33838 37.9399414,38.112793 C38.2475601,37.8872059 38.4765617,37.726563 38.6269531,37.6308594 Z" id="M" fill="#000000"></path>
    </g>
</svg>